M48
; DRILL file {KiCad (5.1.5)-3} date 2019/12/24 23:01:57
; FORMAT={-:-/ absolute / inch / decimal}
; #@! TF.CreationDate,2019-12-24T23:01:57+08:00
; #@! TF.GenerationSoftware,Kicad,Pcbnew,(5.1.5)-3
; #@! TF.FileFunction,Plated,1,2,PTH
FMAT,2
INCH
T1C0.0157
T2C0.0236
T3C0.0276
T4C0.0295
T5C0.0315
T6C0.0335
T7C0.0354
%
G90
G05
T1
X5.05Y-2.95
X5.55Y-2.85
X5.55Y-3.15
X5.95Y-3.3
X6.0Y-3.4
X6.15Y-3.35
X6.3Y-3.85
X6.4Y-2.95
X6.8Y-3.05
X7.05Y-3.1
X7.4Y-3.15
T3
X7.05Y-3.45
X7.05Y-3.75
X6.9Y-3.45
X6.9Y-3.75
X5.25Y-3.15
X5.25Y-3.35
T4
X6.35Y-3.7
X6.4Y-3.65
X6.4Y-3.75
T5
X7.25Y-3.5
X7.25Y-3.6
X7.25Y-3.7
X6.0Y-3.2
X6.0Y-3.5
X6.1Y-3.2
X6.1Y-3.5
X6.2Y-3.2
X6.2Y-3.5
X6.3Y-3.2
X6.3Y-3.5
X6.4Y-3.2
X6.4Y-3.5
X6.5Y-3.2
X6.5Y-3.5
X6.6Y-3.2
X6.6Y-3.5
X6.7Y-3.2
X6.7Y-3.5
X5.05Y-3.1
X5.05Y-3.2
X5.05Y-3.3
X6.2Y-3.6516
X6.2Y-3.75
X5.65Y-3.6516
X5.65Y-3.75
X6.65Y-3.65
X6.65Y-3.7484
T6
X7.8437Y-3.3516
X7.8437Y-3.5484
T7
X5.06Y-2.75
X5.06Y-2.85
X6.85Y-2.75
X6.85Y-2.85
X6.25Y-2.75
X6.25Y-2.85
X5.95Y-2.75
X5.95Y-2.85
X5.65Y-2.75
X5.65Y-2.85
X6.55Y-2.75
X6.55Y-2.85
X5.35Y-2.75
X5.35Y-2.85
X7.15Y-2.75
X7.15Y-2.85
X7.45Y-2.75
X7.45Y-2.85
X7.75Y-2.75
X7.75Y-2.85
T2
G00X7.9362Y-3.3122
M15
G01X7.9638Y-3.3122
M16
G05
G00X7.9638Y-3.5878
M15
G01X7.9362Y-3.5878
M16
G05
T0
M30
