G04 #@! TF.GenerationSoftware,KiCad,Pcbnew,(5.1.5)-3*
G04 #@! TF.CreationDate,2019-12-24T13:43:56+08:00*
G04 #@! TF.ProjectId,test,74657374-2e6b-4696-9361-645f70636258,rev?*
G04 #@! TF.SameCoordinates,Original*
G04 #@! TF.FileFunction,Soldermask,Bot*
G04 #@! TF.FilePolarity,Negative*
%FSLAX46Y46*%
G04 Gerber Fmt 4.6, Leading zero omitted, Abs format (unit mm)*
G04 Created by KiCad (PCBNEW (5.1.5)-3) date 2019-12-24 13:43:56*
%MOMM*%
%LPD*%
G04 APERTURE LIST*
%ADD10C,0.100000*%
G04 APERTURE END LIST*
D10*
G36*
X62721008Y-68627590D02*
G01*
X63216658Y-68726181D01*
X64150440Y-69112967D01*
X64990822Y-69674492D01*
X65705508Y-70389178D01*
X66267033Y-71229560D01*
X66653819Y-72163342D01*
X66851000Y-73154641D01*
X66851000Y-74165359D01*
X66653819Y-75156658D01*
X66267033Y-76090440D01*
X65705508Y-76930822D01*
X64990822Y-77645508D01*
X64150440Y-78207033D01*
X63216658Y-78593819D01*
X62721008Y-78692410D01*
X62225361Y-78791000D01*
X61214639Y-78791000D01*
X60718992Y-78692410D01*
X60223342Y-78593819D01*
X59289560Y-78207033D01*
X58449178Y-77645508D01*
X57734492Y-76930822D01*
X57172967Y-76090440D01*
X56786181Y-75156658D01*
X56589000Y-74165359D01*
X56589000Y-73154641D01*
X56786181Y-72163342D01*
X57172967Y-71229560D01*
X57734492Y-70389178D01*
X58449178Y-69674492D01*
X59289560Y-69112967D01*
X60223342Y-68726181D01*
X60718992Y-68627590D01*
X61214639Y-68529000D01*
X62225361Y-68529000D01*
X62721008Y-68627590D01*
G37*
G36*
X32751008Y-68627590D02*
G01*
X33246658Y-68726181D01*
X34180440Y-69112967D01*
X35020822Y-69674492D01*
X35735508Y-70389178D01*
X36297033Y-71229560D01*
X36683819Y-72163342D01*
X36881000Y-73154641D01*
X36881000Y-74165359D01*
X36683819Y-75156658D01*
X36297033Y-76090440D01*
X35735508Y-76930822D01*
X35020822Y-77645508D01*
X34180440Y-78207033D01*
X33246658Y-78593819D01*
X32751008Y-78692410D01*
X32255361Y-78791000D01*
X31244639Y-78791000D01*
X30748992Y-78692410D01*
X30253342Y-78593819D01*
X29319560Y-78207033D01*
X28479178Y-77645508D01*
X27764492Y-76930822D01*
X27202967Y-76090440D01*
X26816181Y-75156658D01*
X26619000Y-74165359D01*
X26619000Y-73154641D01*
X26816181Y-72163342D01*
X27202967Y-71229560D01*
X27764492Y-70389178D01*
X28479178Y-69674492D01*
X29319560Y-69112967D01*
X30253342Y-68726181D01*
X30748992Y-68627590D01*
X31244639Y-68529000D01*
X32255361Y-68529000D01*
X32751008Y-68627590D01*
G37*
G36*
X47741008Y-68627590D02*
G01*
X48236658Y-68726181D01*
X49170440Y-69112967D01*
X50010822Y-69674492D01*
X50725508Y-70389178D01*
X51287033Y-71229560D01*
X51673819Y-72163342D01*
X51871000Y-73154641D01*
X51871000Y-74165359D01*
X51673819Y-75156658D01*
X51287033Y-76090440D01*
X50725508Y-76930822D01*
X50010822Y-77645508D01*
X49170440Y-78207033D01*
X48236658Y-78593819D01*
X47741008Y-78692410D01*
X47245361Y-78791000D01*
X46234639Y-78791000D01*
X45738992Y-78692410D01*
X45243342Y-78593819D01*
X44309560Y-78207033D01*
X43469178Y-77645508D01*
X42754492Y-76930822D01*
X42192967Y-76090440D01*
X41806181Y-75156658D01*
X41609000Y-74165359D01*
X41609000Y-73154641D01*
X41806181Y-72163342D01*
X42192967Y-71229560D01*
X42754492Y-70389178D01*
X43469178Y-69674492D01*
X44309560Y-69112967D01*
X45243342Y-68726181D01*
X45738992Y-68627590D01*
X46234639Y-68529000D01*
X47245361Y-68529000D01*
X47741008Y-68627590D01*
G37*
G36*
X47238228Y-65221703D02*
G01*
X47393100Y-65285853D01*
X47532481Y-65378985D01*
X47651015Y-65497519D01*
X47744147Y-65636900D01*
X47808297Y-65791772D01*
X47841000Y-65956184D01*
X47841000Y-66123816D01*
X47808297Y-66288228D01*
X47744147Y-66443100D01*
X47651015Y-66582481D01*
X47532481Y-66701015D01*
X47393100Y-66794147D01*
X47238228Y-66858297D01*
X47073816Y-66891000D01*
X46906184Y-66891000D01*
X46741772Y-66858297D01*
X46586900Y-66794147D01*
X46447519Y-66701015D01*
X46328985Y-66582481D01*
X46235853Y-66443100D01*
X46171703Y-66288228D01*
X46139000Y-66123816D01*
X46139000Y-65956184D01*
X46171703Y-65791772D01*
X46235853Y-65636900D01*
X46328985Y-65497519D01*
X46447519Y-65378985D01*
X46586900Y-65285853D01*
X46741772Y-65221703D01*
X46906184Y-65189000D01*
X47073816Y-65189000D01*
X47238228Y-65221703D01*
G37*
G36*
X47238228Y-62681703D02*
G01*
X47393100Y-62745853D01*
X47532481Y-62838985D01*
X47651015Y-62957519D01*
X47744147Y-63096900D01*
X47808297Y-63251772D01*
X47841000Y-63416184D01*
X47841000Y-63583816D01*
X47808297Y-63748228D01*
X47744147Y-63903100D01*
X47651015Y-64042481D01*
X47532481Y-64161015D01*
X47393100Y-64254147D01*
X47238228Y-64318297D01*
X47073816Y-64351000D01*
X46906184Y-64351000D01*
X46741772Y-64318297D01*
X46586900Y-64254147D01*
X46447519Y-64161015D01*
X46328985Y-64042481D01*
X46235853Y-63903100D01*
X46171703Y-63748228D01*
X46139000Y-63583816D01*
X46139000Y-63416184D01*
X46171703Y-63251772D01*
X46235853Y-63096900D01*
X46328985Y-62957519D01*
X46447519Y-62838985D01*
X46586900Y-62745853D01*
X46741772Y-62681703D01*
X46906184Y-62649000D01*
X47073816Y-62649000D01*
X47238228Y-62681703D01*
G37*
G36*
X34538228Y-60141703D02*
G01*
X34693100Y-60205853D01*
X34832481Y-60298985D01*
X34951015Y-60417519D01*
X35044147Y-60556900D01*
X35108297Y-60711772D01*
X35141000Y-60876184D01*
X35141000Y-61043816D01*
X35108297Y-61208228D01*
X35044147Y-61363100D01*
X34951015Y-61502481D01*
X34832481Y-61621015D01*
X34693100Y-61714147D01*
X34538228Y-61778297D01*
X34373816Y-61811000D01*
X34206184Y-61811000D01*
X34041772Y-61778297D01*
X33886900Y-61714147D01*
X33747519Y-61621015D01*
X33628985Y-61502481D01*
X33535853Y-61363100D01*
X33471703Y-61208228D01*
X33439000Y-61043816D01*
X33439000Y-60876184D01*
X33471703Y-60711772D01*
X33535853Y-60556900D01*
X33628985Y-60417519D01*
X33747519Y-60298985D01*
X33886900Y-60205853D01*
X34041772Y-60141703D01*
X34206184Y-60109000D01*
X34373816Y-60109000D01*
X34538228Y-60141703D01*
G37*
G36*
X42158228Y-60141703D02*
G01*
X42313100Y-60205853D01*
X42452481Y-60298985D01*
X42571015Y-60417519D01*
X42664147Y-60556900D01*
X42728297Y-60711772D01*
X42761000Y-60876184D01*
X42761000Y-61043816D01*
X42728297Y-61208228D01*
X42664147Y-61363100D01*
X42571015Y-61502481D01*
X42452481Y-61621015D01*
X42313100Y-61714147D01*
X42158228Y-61778297D01*
X41993816Y-61811000D01*
X41826184Y-61811000D01*
X41661772Y-61778297D01*
X41506900Y-61714147D01*
X41367519Y-61621015D01*
X41248985Y-61502481D01*
X41155853Y-61363100D01*
X41091703Y-61208228D01*
X41059000Y-61043816D01*
X41059000Y-60876184D01*
X41091703Y-60711772D01*
X41155853Y-60556900D01*
X41248985Y-60417519D01*
X41367519Y-60298985D01*
X41506900Y-60205853D01*
X41661772Y-60141703D01*
X41826184Y-60109000D01*
X41993816Y-60109000D01*
X42158228Y-60141703D01*
G37*
G36*
X42158228Y-57601703D02*
G01*
X42313100Y-57665853D01*
X42452481Y-57758985D01*
X42571015Y-57877519D01*
X42664147Y-58016900D01*
X42728297Y-58171772D01*
X42761000Y-58336184D01*
X42761000Y-58503816D01*
X42728297Y-58668228D01*
X42664147Y-58823100D01*
X42571015Y-58962481D01*
X42452481Y-59081015D01*
X42313100Y-59174147D01*
X42158228Y-59238297D01*
X41993816Y-59271000D01*
X41826184Y-59271000D01*
X41661772Y-59238297D01*
X41506900Y-59174147D01*
X41367519Y-59081015D01*
X41248985Y-58962481D01*
X41155853Y-58823100D01*
X41091703Y-58668228D01*
X41059000Y-58503816D01*
X41059000Y-58336184D01*
X41091703Y-58171772D01*
X41155853Y-58016900D01*
X41248985Y-57877519D01*
X41367519Y-57758985D01*
X41506900Y-57665853D01*
X41661772Y-57601703D01*
X41826184Y-57569000D01*
X41993816Y-57569000D01*
X42158228Y-57601703D01*
G37*
G36*
X34538228Y-57601703D02*
G01*
X34693100Y-57665853D01*
X34832481Y-57758985D01*
X34951015Y-57877519D01*
X35044147Y-58016900D01*
X35108297Y-58171772D01*
X35141000Y-58336184D01*
X35141000Y-58503816D01*
X35108297Y-58668228D01*
X35044147Y-58823100D01*
X34951015Y-58962481D01*
X34832481Y-59081015D01*
X34693100Y-59174147D01*
X34538228Y-59238297D01*
X34373816Y-59271000D01*
X34206184Y-59271000D01*
X34041772Y-59238297D01*
X33886900Y-59174147D01*
X33747519Y-59081015D01*
X33628985Y-58962481D01*
X33535853Y-58823100D01*
X33471703Y-58668228D01*
X33439000Y-58503816D01*
X33439000Y-58336184D01*
X33471703Y-58171772D01*
X33535853Y-58016900D01*
X33628985Y-57877519D01*
X33747519Y-57758985D01*
X33886900Y-57665853D01*
X34041772Y-57601703D01*
X34206184Y-57569000D01*
X34373816Y-57569000D01*
X34538228Y-57601703D01*
G37*
G36*
X34538228Y-55061703D02*
G01*
X34693100Y-55125853D01*
X34832481Y-55218985D01*
X34951015Y-55337519D01*
X35044147Y-55476900D01*
X35108297Y-55631772D01*
X35141000Y-55796184D01*
X35141000Y-55963816D01*
X35108297Y-56128228D01*
X35044147Y-56283100D01*
X34951015Y-56422481D01*
X34832481Y-56541015D01*
X34693100Y-56634147D01*
X34538228Y-56698297D01*
X34373816Y-56731000D01*
X34206184Y-56731000D01*
X34041772Y-56698297D01*
X33886900Y-56634147D01*
X33747519Y-56541015D01*
X33628985Y-56422481D01*
X33535853Y-56283100D01*
X33471703Y-56128228D01*
X33439000Y-55963816D01*
X33439000Y-55796184D01*
X33471703Y-55631772D01*
X33535853Y-55476900D01*
X33628985Y-55337519D01*
X33747519Y-55218985D01*
X33886900Y-55125853D01*
X34041772Y-55061703D01*
X34206184Y-55029000D01*
X34373816Y-55029000D01*
X34538228Y-55061703D01*
G37*
G36*
X42158228Y-55061703D02*
G01*
X42313100Y-55125853D01*
X42452481Y-55218985D01*
X42571015Y-55337519D01*
X42664147Y-55476900D01*
X42728297Y-55631772D01*
X42761000Y-55796184D01*
X42761000Y-55963816D01*
X42728297Y-56128228D01*
X42664147Y-56283100D01*
X42571015Y-56422481D01*
X42452481Y-56541015D01*
X42313100Y-56634147D01*
X42158228Y-56698297D01*
X41993816Y-56731000D01*
X41826184Y-56731000D01*
X41661772Y-56698297D01*
X41506900Y-56634147D01*
X41367519Y-56541015D01*
X41248985Y-56422481D01*
X41155853Y-56283100D01*
X41091703Y-56128228D01*
X41059000Y-55963816D01*
X41059000Y-55796184D01*
X41091703Y-55631772D01*
X41155853Y-55476900D01*
X41248985Y-55337519D01*
X41367519Y-55218985D01*
X41506900Y-55125853D01*
X41661772Y-55061703D01*
X41826184Y-55029000D01*
X41993816Y-55029000D01*
X42158228Y-55061703D01*
G37*
G36*
X48508228Y-55061703D02*
G01*
X48663100Y-55125853D01*
X48802481Y-55218985D01*
X48921015Y-55337519D01*
X49014147Y-55476900D01*
X49078297Y-55631772D01*
X49111000Y-55796184D01*
X49111000Y-55963816D01*
X49078297Y-56128228D01*
X49014147Y-56283100D01*
X48921015Y-56422481D01*
X48802481Y-56541015D01*
X48663100Y-56634147D01*
X48508228Y-56698297D01*
X48343816Y-56731000D01*
X48176184Y-56731000D01*
X48011772Y-56698297D01*
X47856900Y-56634147D01*
X47717519Y-56541015D01*
X47598985Y-56422481D01*
X47505853Y-56283100D01*
X47441703Y-56128228D01*
X47409000Y-55963816D01*
X47409000Y-55796184D01*
X47441703Y-55631772D01*
X47505853Y-55476900D01*
X47598985Y-55337519D01*
X47717519Y-55218985D01*
X47856900Y-55125853D01*
X48011772Y-55061703D01*
X48176184Y-55029000D01*
X48343816Y-55029000D01*
X48508228Y-55061703D01*
G37*
G36*
X51048228Y-55061703D02*
G01*
X51203100Y-55125853D01*
X51342481Y-55218985D01*
X51461015Y-55337519D01*
X51554147Y-55476900D01*
X51618297Y-55631772D01*
X51651000Y-55796184D01*
X51651000Y-55963816D01*
X51618297Y-56128228D01*
X51554147Y-56283100D01*
X51461015Y-56422481D01*
X51342481Y-56541015D01*
X51203100Y-56634147D01*
X51048228Y-56698297D01*
X50883816Y-56731000D01*
X50716184Y-56731000D01*
X50551772Y-56698297D01*
X50396900Y-56634147D01*
X50257519Y-56541015D01*
X50138985Y-56422481D01*
X50045853Y-56283100D01*
X49981703Y-56128228D01*
X49949000Y-55963816D01*
X49949000Y-55796184D01*
X49981703Y-55631772D01*
X50045853Y-55476900D01*
X50138985Y-55337519D01*
X50257519Y-55218985D01*
X50396900Y-55125853D01*
X50551772Y-55061703D01*
X50716184Y-55029000D01*
X50883816Y-55029000D01*
X51048228Y-55061703D01*
G37*
G36*
X42158228Y-52521703D02*
G01*
X42313100Y-52585853D01*
X42452481Y-52678985D01*
X42571015Y-52797519D01*
X42664147Y-52936900D01*
X42728297Y-53091772D01*
X42761000Y-53256184D01*
X42761000Y-53423816D01*
X42728297Y-53588228D01*
X42664147Y-53743100D01*
X42571015Y-53882481D01*
X42452481Y-54001015D01*
X42313100Y-54094147D01*
X42158228Y-54158297D01*
X41993816Y-54191000D01*
X41826184Y-54191000D01*
X41661772Y-54158297D01*
X41506900Y-54094147D01*
X41367519Y-54001015D01*
X41248985Y-53882481D01*
X41155853Y-53743100D01*
X41091703Y-53588228D01*
X41059000Y-53423816D01*
X41059000Y-53256184D01*
X41091703Y-53091772D01*
X41155853Y-52936900D01*
X41248985Y-52797519D01*
X41367519Y-52678985D01*
X41506900Y-52585853D01*
X41661772Y-52521703D01*
X41826184Y-52489000D01*
X41993816Y-52489000D01*
X42158228Y-52521703D01*
G37*
G36*
X35141000Y-54191000D02*
G01*
X33439000Y-54191000D01*
X33439000Y-52489000D01*
X35141000Y-52489000D01*
X35141000Y-54191000D01*
G37*
G36*
X48537395Y-48615546D02*
G01*
X48710466Y-48687234D01*
X48710467Y-48687235D01*
X48866227Y-48791310D01*
X48998690Y-48923773D01*
X48998691Y-48923775D01*
X49102766Y-49079534D01*
X49174454Y-49252605D01*
X49211000Y-49436333D01*
X49211000Y-49623667D01*
X49174454Y-49807395D01*
X49102766Y-49980466D01*
X49102765Y-49980467D01*
X48998690Y-50136227D01*
X48866227Y-50268690D01*
X48787818Y-50321081D01*
X48710466Y-50372766D01*
X48537395Y-50444454D01*
X48353667Y-50481000D01*
X48166333Y-50481000D01*
X47982605Y-50444454D01*
X47809534Y-50372766D01*
X47732182Y-50321081D01*
X47653773Y-50268690D01*
X47521310Y-50136227D01*
X47417235Y-49980467D01*
X47417234Y-49980466D01*
X47345546Y-49807395D01*
X47309000Y-49623667D01*
X47309000Y-49436333D01*
X47345546Y-49252605D01*
X47417234Y-49079534D01*
X47521309Y-48923775D01*
X47521310Y-48923773D01*
X47653773Y-48791310D01*
X47809533Y-48687235D01*
X47809534Y-48687234D01*
X47982605Y-48615546D01*
X48166333Y-48579000D01*
X48353667Y-48579000D01*
X48537395Y-48615546D01*
G37*
G36*
X51751000Y-50481000D02*
G01*
X49849000Y-50481000D01*
X49849000Y-48579000D01*
X51751000Y-48579000D01*
X51751000Y-50481000D01*
G37*
M02*
