G04 #@! TF.GenerationSoftware,KiCad,Pcbnew,(5.1.5)-3*
G04 #@! TF.CreationDate,2019-12-24T13:43:55+08:00*
G04 #@! TF.ProjectId,test,74657374-2e6b-4696-9361-645f70636258,rev?*
G04 #@! TF.SameCoordinates,Original*
G04 #@! TF.FileFunction,Copper,L1,Top*
G04 #@! TF.FilePolarity,Positive*
%FSLAX46Y46*%
G04 Gerber Fmt 4.6, Leading zero omitted, Abs format (unit mm)*
G04 Created by KiCad (PCBNEW (5.1.5)-3) date 2019-12-24 13:43:55*
%MOMM*%
%LPD*%
G04 APERTURE LIST*
%ADD10R,1.800000X1.800000*%
%ADD11C,1.800000*%
%ADD12C,1.600000*%
%ADD13O,1.600000X1.600000*%
%ADD14C,10.160000*%
%ADD15R,1.600000X1.600000*%
%ADD16C,0.609600*%
%ADD17C,0.250000*%
G04 APERTURE END LIST*
D10*
X50800000Y-49530000D03*
D11*
X48260000Y-49530000D03*
D12*
X48260000Y-55880000D03*
D13*
X50800000Y-55880000D03*
D14*
X31750000Y-73660000D03*
X61720000Y-73660000D03*
X46740000Y-73660000D03*
D13*
X46990000Y-66040000D03*
D12*
X46990000Y-63500000D03*
D15*
X34290000Y-53340000D03*
D13*
X41910000Y-60960000D03*
X34290000Y-55880000D03*
X41910000Y-58420000D03*
X34290000Y-58420000D03*
X41910000Y-55880000D03*
X34290000Y-60960000D03*
X41910000Y-53340000D03*
D16*
X50800000Y-49530000D02*
X50800000Y-55880000D01*
D17*
X31750000Y-66475796D02*
X31750000Y-73660000D01*
X33240000Y-53340000D02*
X34290000Y-53340000D01*
X31299990Y-55280010D02*
X33240000Y-53340000D01*
D16*
X31299990Y-64506390D02*
X31299990Y-55280010D01*
D17*
X31563600Y-64770000D02*
X31299990Y-64506390D01*
X31750000Y-64770000D02*
X31563600Y-64770000D01*
D16*
X34290000Y-51930400D02*
X34290000Y-53340000D01*
X37590399Y-48630001D02*
X34290000Y-51930400D01*
X47360001Y-48630001D02*
X37590399Y-48630001D01*
X48260000Y-49530000D02*
X47360001Y-48630001D01*
X31750000Y-64770000D02*
X31750000Y-66475796D01*
D17*
X46990000Y-73410000D02*
X46740000Y-73660000D01*
X46990000Y-66040000D02*
X46990000Y-73410000D01*
D16*
X41910000Y-55880000D02*
X48260000Y-55880000D01*
D17*
X42709999Y-59219999D02*
X46990000Y-63500000D01*
X41910000Y-58420000D02*
X42709999Y-59219999D01*
M02*
